# xmcd CD database file generated by OrangeCD 5.2
#
# Track frame offsets:
#	150
#	28536
#	48817
#	65748
#	85700
#	98673
#	113147
#	133863
#	153333
#	165799
#	188878
#	202447
#	213753
#	226529
#	247081
#	263332
#	283940
#	295661
#	308380
#	320938
#	335994
#
# Disc length: 4780 seconds
#
# Revision: 0
# Processed by: cddbd v1.5.1PL2 Copyright (c) Steve Scherf et al.
# Submitted via: OrangeCD 5.2
#
DISCID=2912aa15
DTITLE=Various Artist - Rhythm and Blues Classics Volume 6
DYEAR=2006
DGENRE=Dance R&B
TTITLE0=Stevie Wonder - I Just Called To Say I Love You
TTITLE1=War - The Cisco Kid
TTITLE2=The Reflections - Three Steps From True Love
TTITLE3=The Commodores - Easy
TTITLE4=Natalie Cole - This Will Be (An Everlasting Love)
TTITLE5=War - Low Rider
TTITLE6=Issac Hayes - Walk On By
TTITLE7=Wang Chung - Everybody Have Fun Tonight
TTITLE8=Al Green - Tired Of Being Alone
TTITLE9=The New Creations - There Is Something On Your Mind
TTITLE10=James and Bobby Purify - I'm Your Puppet
TTITLE11=Willie Mitchell - 30-60-90
TTITLE12=Aretha Franklin - Chain Of Fools
TTITLE13=Barry White - Can't Get Enough Of Your Love
TTITLE14=The Pasadenas - Let's Stay Together
TTITLE15=Aaron Neville - Medley   This Is My Story   We Belong Together
TTITLE16=Linda Ronstadt - That'll Be The Day
TTITLE17=Linda Ronstadt - Heatwave
TTITLE18=Four Tops - I Can't Help Myself (Suger Pie Honey Punch)
TTITLE19=Linda Ronstadt - Ooh Baby Baby
TTITLE20=George Michael - Careless Whisper
EXTD=
EXTT0=
EXTT1=
EXTT2=
EXTT3=
EXTT4=
EXTT5=
EXTT6=
EXTT7=
EXTT8=
EXTT9=
EXTT10=
EXTT11=
EXTT12=
EXTT13=
EXTT14=
EXTT15=
EXTT16=
EXTT17=
EXTT18=
EXTT19=
EXTT20=
PLAYORDER=
